<svg xmlns="http://www.w3.org/2000/svg" width="100%" viewBox="0 0 45 32" fill="none" class="navbar_logo">
  <path d="M28.0758 5.22119L27.7987 5.98157C27.7987 5.98157 20.9408 24.8246 20.9026 24.9276C20.3064 26.556 19.3277 28.0012 18.0764 29.1532C16.1564 30.9213 13.5935 32 10.7788 32C9.62599 32 8.51444 31.8191 7.47312 31.484C6.38752 31.1343 5.37674 30.6175 4.47208 29.9632C4.12395 29.712 3.7911 29.4403 3.47656 29.1502C3.47733 29.1502 3.47733 29.1494 3.47733 29.1494H3.47809C3.62696 29.1608 3.77812 29.1662 3.93004 29.1662C4.21938 29.1662 4.50414 29.1463 4.78279 29.1082C7.10133 28.7929 9.01601 27.2072 9.8054 25.0742C9.81227 25.0574 9.81838 25.0398 9.82449 25.0223L14.6753 11.6958C14.7326 11.5424 14.7929 11.3905 14.857 11.2408C14.9738 10.9683 15.1021 10.7019 15.2426 10.4431C16.9183 7.33437 20.2041 5.22119 23.9838 5.22119H28.0758Z" fill="black"></path>
  <path d="M44.5703 0L44.2901 0.769538L35.5427 24.8031L35.4977 24.9275C33.9868 29.0546 30.0239 32 25.3738 32C24.205 32 23.0797 31.8137 22.0262 31.4701C20.9566 31.1212 19.9611 30.609 19.0679 29.9631H19.0671C18.7205 29.7135 18.3899 29.4432 18.0762 29.1539C18.209 29.1623 18.3418 29.1669 18.477 29.1669C18.7839 29.1669 19.0854 29.1447 19.3809 29.1012H19.3816C21.6811 28.7691 23.5759 27.1858 24.3569 25.0627C24.3577 25.0634 24.3584 25.0627 24.3584 25.0627L30.6445 7.79081L31.0713 6.61971L31.1545 6.39144C31.3079 5.98835 31.4866 5.59747 31.6897 5.2211C33.3104 2.2086 36.4435 0.129783 40.0721 0H44.5703Z" fill="black"></path>
  <path d="M11.566 10.4711L8.57638 18.6856L5.61274 26.8269C5.23637 27.8552 4.46301 28.6919 3.47819 29.1492H3.47666C1.44136 27.275 0.130547 24.6259 0.00916116 21.6706C0.00305372 21.5218 0 21.3714 0 21.221C0 19.9338 0.225212 18.7001 0.638991 17.5565C2.13913 13.408 6.11279 10.4429 10.7789 10.4429C11.0438 10.4429 11.3064 10.4528 11.566 10.4711Z" fill="black"></path>
  <defs>
    <clipPath id="clip0_3203_2589">
      <rect width="161.517" height="19.9412" fill="currentColor" transform="translate(53.5586 6.0293)"></rect>
    </clipPath>
  </defs>
</svg>