<svg id="Layer_1" enable-background="new 0 0 512 512" height="512" viewBox="0 0 512 512" width="512" xmlns="http://www.w3.org/2000/svg"><g><path d="m432.733 512h-113.533c-8.284 0-15-6.716-15-15v-257.067c0-8.284 6.716-15 15-15h145.666c4.303 0 8.397 1.848 11.245 5.073 2.848 3.226 4.173 7.519 3.639 11.788l-32.133 257.066c-.937 7.507-7.319 13.14-14.884 13.14z" fill="#c1126b"/><path d="m192.8 512h-113.533c-7.564 0-13.946-5.633-14.884-13.14l-32.133-257.067c-.534-4.269.791-8.562 3.639-11.788 2.848-3.225 6.942-5.073 11.245-5.073h145.666c8.284 0 15 6.716 15 15v257.068c0 8.284-6.716 15-15 15z" fill="#e20059"/><path d="m319.2 512h-126.4v-257.067c0-8.284 6.716-15 15-15h96.4c8.284 0 15 6.716 15 15z" fill="#ffb543"/><path d="m304.2 239.933h-48.2v272.067h63.2v-257.067c0-8.284-6.716-15-15-15z" fill="#ff9743"/><g><path d="m288.133 158.534c-8.284 0-15-6.716-15-15s6.716-15 15-15c64.651 0 98.369-36.234 98.369-67.711 0-19.3-12.748-30.823-34.103-30.823-38.876 0-70.666 72.865-81.85 117.179-1.675 6.67-7.673 11.35-14.549 11.351-.003 0-.005 0-.008 0-6.88-.003-12.877-4.684-14.545-11.358-6.53-25.918-37.377-117.172-81.847-117.172-21.354 0-34.103 11.522-34.103 30.823 0 31.44 33.626 67.711 98.369 67.711 8.284 0 15 6.716 15 15s-6.716 15-15 15c-91.035 0-128.369-57.792-128.369-97.711.001-30.945 21.248-60.823 64.103-60.823 30.225 0 66.257 21.662 96.4 96.358 30.168-74.755 66.217-96.358 96.4-96.358 42.791 0 64.103 29.795 64.103 60.823-.001 39.716-37.239 97.711-128.37 97.711z" fill="#ffb543"/></g><g><path d="m256 96.358c30.168-74.755 66.217-96.358 96.4-96.358 42.791 0 64.103 29.795 64.103 60.823 0 39.716-37.238 97.711-128.369 97.711-8.284 0-15-6.716-15-15s6.716-15 15-15c64.651 0 98.369-36.234 98.369-67.711 0-19.3-12.748-30.823-34.103-30.823-38.876 0-70.666 72.865-81.85 117.179-1.675 6.67-7.673 11.35-14.549 11.351-.003 0-.005 0-.008 0z" fill="#ff9743"/></g><path d="m192.8 254.933h-165.75c-7.564 0-13.946-5.633-14.884-13.14l-12.05-96.4c-.534-4.269.791-8.562 3.639-11.788 2.848-3.225 6.942-5.073 11.245-5.073h177.8c8.284 0 15 6.716 15 15v96.4c0 8.285-6.716 15.001-15 15.001z" fill="#ff405c"/><path d="m484.95 254.933h-165.75c-8.284 0-15-6.716-15-15v-96.4c0-8.284 6.716-15 15-15h177.8c4.303 0 8.397 1.848 11.245 5.073 2.848 3.226 4.173 7.519 3.639 11.788l-12.05 96.4c-.937 7.506-7.319 13.139-14.884 13.139z" fill="#e20059"/><path d="m192.8 128.533h126.4v126.4h-126.4z" fill="#ffdb5c"/><path d="m256 128.533h63.2v126.4h-63.2z" fill="#ffb543"/></g></svg>