<svg xmlns="http://www.w3.org/2000/svg" width="100%" viewBox="0 0 1312 162" fill="none" class="footer_logo">
  <g clip-path="url(#clip0_3203_3398)">
    <path d="M1256.83 161.983C1219.1 161.983 1196.37 139.255 1196.37 104.163C1196.37 69.0721 1219.54 45.9 1254.63 45.9C1289.71 45.9 1311.56 67.0881 1312.01 100.41C1312.01 103.719 1311.79 107.473 1311.13 111.004H1228.81V112.551C1229.47 128.661 1239.84 138.374 1255.51 138.374C1268.09 138.374 1276.92 132.858 1279.57 122.264H1310.24C1306.71 144.333 1287.07 161.99 1256.83 161.99V161.983ZM1229.47 90.697H1280.67C1278.46 76.7937 1268.97 69.0721 1254.85 69.0721C1240.72 69.0721 1231.23 77.2379 1229.47 90.697Z" fill="white"></path>
    <path d="M1151.92 160.657V6.18164H1183.04V160.657H1151.92Z" fill="white"></path>
    <path d="M1119.96 35.0913C1109.81 35.0913 1101.87 27.5844 1101.87 17.6567C1101.87 7.72897 1109.81 0 1119.96 0C1130.11 0 1138.06 7.50687 1138.06 17.6567C1138.06 27.8065 1130.12 35.0913 1119.96 35.0913ZM1104.3 160.657V47.2252H1135.63V160.657H1104.3Z" fill="white"></path>
    <path d="M1038.4 45.9C1068.86 45.9 1090.92 67.7469 1090.92 103.719C1090.92 139.691 1068.86 161.983 1038.18 161.983C1021.85 161.983 1010.59 154.92 1003.31 145.214L1000.22 160.665H973.08V6.18164H1004.2V61.5726C1011.7 52.5258 1022.73 45.9074 1038.4 45.9074V45.9ZM1031.34 136.604C1048.33 136.604 1059.37 123.36 1059.37 103.941C1059.37 84.5226 1048.33 71.2782 1031.34 71.2782C1014.35 71.2782 1003.76 84.5226 1003.76 103.719C1003.76 122.916 1014.35 136.604 1031.34 136.604Z" fill="white"></path>
    <path d="M899.952 161.983C863.757 161.983 840.148 138.811 840.148 103.941C840.148 69.0721 863.757 45.9 899.952 45.9C936.146 45.9 959.755 69.0721 959.755 103.941C959.755 138.811 936.146 161.983 899.952 161.983ZM899.952 136.604C917.386 136.604 928.195 123.145 928.195 103.941C928.195 84.7374 917.386 71.2783 899.952 71.2783C882.517 71.2783 871.923 84.7374 871.923 103.941C871.923 123.145 882.517 136.604 899.952 136.604Z" fill="white"></path>
    <path d="M656.451 160.657V6.18164H699.923L742.736 119.614L784.223 6.18164H826.814V160.657H795.262V57.1603L755.099 160.657H728.181L688.019 57.1603V160.657H656.466H656.451Z" fill="white"></path>
    <path d="M551.844 61.3505V6.18164H582.959V160.657H555.819L552.725 144.992C545.225 154.705 534.187 161.983 517.855 161.983C487.399 161.983 465.107 139.691 465.107 103.719C465.107 67.7469 487.399 45.9 517.633 45.9C533.299 45.9 544.559 52.0817 551.836 61.3505H551.844ZM524.703 136.604C541.694 136.604 552.288 123.36 552.288 104.163C552.288 84.9668 541.694 71.2782 524.703 71.2782C507.713 71.2782 496.897 84.5226 496.897 103.941C496.897 123.36 507.706 136.604 524.703 136.604Z" fill="white"></path>
    <path d="M420.674 160.657V6.18164H451.79V160.657H420.674Z" fill="white"></path>
    <path d="M402.054 47.2252H407.347V75.4759H394.992C376.454 75.4759 369.391 87.8319 369.391 105.044V160.657H338.275V47.2252H366.526L369.391 64.2156C375.573 54.0658 384.398 47.2252 402.054 47.2252Z" fill="white"></path>
    <path d="M265.147 161.983C228.953 161.983 205.344 138.811 205.344 103.941C205.344 69.0721 228.96 45.9 265.147 45.9C301.334 45.9 324.95 69.0721 324.95 103.941C324.95 138.811 301.334 161.983 265.147 161.983ZM265.147 136.604C282.582 136.604 293.39 123.145 293.39 103.941C293.39 84.7374 282.582 71.2783 265.147 71.2783C247.712 71.2783 237.118 84.7374 237.118 103.941C237.118 123.145 247.712 136.604 265.147 136.604Z" fill="white"></path>
    <path d="M43.035 160.657L0 6.18169L34.425 5.95959L62.8904 118.948L93.1252 6.18169H122.916L152.27 118.948L181.401 6.18169H214.945L171.91 160.657H133.954L107.028 58.0413L80.9913 160.657H43.035Z" fill="white"></path>
  </g>
  <defs>
    <clipPath id="clip0_3203_3398">
      <rect width="1312" height="161.983" fill="white"></rect>
    </clipPath>
  </defs>
</svg>